<svg width="20" height="15" xmlns="http://www.w3.org/2000/svg" xmlns:xlink="http://www.w3.org/1999/xlink" xml:space="preserve" overflow="hidden"><defs><clipPath id="clip0"><rect x="630" y="352" width="20" height="15"/></clipPath></defs><g clip-path="url(#clip0)" transform="translate(-630 -352)"><path d="M640 361.006C639.765 361.007 639.537 360.932 639.348 360.793L630.445 354.223C630.329 354.137 630.231 354.03 630.157 353.906 630.083 353.783 630.034 353.646 630.012 353.504 629.969 353.217 630.042 352.924 630.215 352.69 630.388 352.456 630.646 352.301 630.934 352.258 631.222 352.214 631.515 352.287 631.749 352.46L640 358.542 648.251 352.46C648.367 352.374 648.498 352.313 648.638 352.278 648.778 352.243 648.923 352.236 649.066 352.258 649.208 352.279 649.345 352.328 649.469 352.402 649.592 352.476 649.7 352.574 649.785 352.69 649.871 352.806 649.933 352.937 649.968 353.077 650.002 353.217 650.009 353.362 649.988 353.504 649.966 353.646 649.917 353.783 649.843 353.906 649.769 354.03 649.671 354.137 649.555 354.223L640.652 360.793C640.463 360.932 640.235 361.007 640 361.006Z" fill="#FFFFFF"/><path d="M640 366.755C639.765 366.755 639.537 366.68 639.348 366.541L630.445 359.971C630.211 359.799 630.055 359.54 630.012 359.253 629.969 358.965 630.042 358.672 630.215 358.438 630.388 358.205 630.646 358.049 630.934 358.006 631.222 357.963 631.515 358.036 631.749 358.209L640 364.291 648.251 358.209C648.485 358.036 648.778 357.963 649.066 358.006 649.354 358.049 649.612 358.205 649.785 358.438 649.958 358.672 650.031 358.965 649.988 359.253 649.945 359.54 649.789 359.799 649.555 359.971L640.652 366.541C640.463 366.68 640.235 366.755 640 366.755Z" fill="#FFFFFF"/></g></svg>