<svg width="17" height="13" viewBox="0 0 17 13" fill="none" xmlns="http://www.w3.org/2000/svg">
<path d="M8.50026 5.25476C8.69969 5.25443 8.89397 5.31633 9.05451 5.43137L16.623 10.8653C16.7215 10.9361 16.8046 11.025 16.8678 11.127C16.9309 11.2291 16.9727 11.3422 16.9909 11.4599C17.0276 11.6977 16.9656 11.9399 16.8186 12.1333C16.6716 12.3266 16.4516 12.4553 16.2071 12.4909C15.9625 12.5266 15.7134 12.4664 15.5145 12.3234L8.50026 7.2925L1.48602 12.3234C1.38754 12.3942 1.2757 12.4454 1.15687 12.4742C1.03803 12.5029 0.914545 12.5086 0.793448 12.4909C0.672348 12.4733 0.556015 12.4326 0.451088 12.3712C0.346159 12.3099 0.254691 12.229 0.181906 12.1333C0.109122 12.0375 0.0564447 11.9288 0.0268846 11.8132C-0.00267546 11.6977 -0.00854054 11.5776 0.00962314 11.4599C0.0277887 11.3422 0.0696264 11.2291 0.132752 11.127C0.195876 11.025 0.279049 10.9361 0.377524 10.8653L7.94602 5.43137C8.10656 5.31633 8.30083 5.25443 8.50026 5.25476Z" fill="white"/>
<path d="M8.50002 0.499879C8.69945 0.499544 8.89372 0.561447 9.05427 0.676482L16.6228 6.11045C16.8216 6.25336 16.954 6.46724 16.9907 6.70502C17.0273 6.9428 16.9654 7.18501 16.8184 7.37837C16.6714 7.57173 16.4514 7.70039 16.2068 7.73606C15.9623 7.77173 15.7131 7.71147 15.5143 7.56856L8.50002 2.53761L1.48577 7.56856C1.28689 7.71147 1.03777 7.77173 0.793203 7.73606C0.548634 7.70039 0.328657 7.57173 0.181662 7.37837C0.0346666 7.18501 -0.027305 6.9428 0.009379 6.70502C0.0460649 6.46723 0.178402 6.25336 0.37728 6.11044L7.94577 0.676482C8.10631 0.561447 8.30059 0.499544 8.50002 0.499879Z" fill="white"/>
</svg>
