<svg width="20" height="23" viewBox="0 0 20 23" fill="none" xmlns="http://www.w3.org/2000/svg">
<path d="M4.58175 20.7689H15.4151V20.4939C14.6567 19.8522 13.8172 19.3711 12.8963 19.0507C11.9755 18.7295 11.0095 18.5689 9.99841 18.5689C8.9873 18.5689 8.02133 18.7295 7.1005 19.0507C6.17966 19.3711 5.34008 19.8522 4.58175 20.4939V20.7689ZM2.41508 19.5039C3.39008 18.5322 4.52325 17.7666 5.81458 17.2071C7.10519 16.6483 8.4998 16.3689 9.99841 16.3689C11.497 16.3689 12.892 16.6483 14.1833 17.2071C15.4739 17.7666 16.6067 18.5322 17.5817 19.5039V5.36887H2.41508V19.5039ZM9.99841 14.1689C8.95119 14.1689 8.05744 13.793 7.31716 13.0414C6.57689 12.2897 6.20675 11.3822 6.20675 10.3189C6.20675 9.25554 6.57689 8.34804 7.31716 7.59637C8.05744 6.84471 8.95119 6.46887 9.99841 6.46887C11.0456 6.46887 11.9394 6.84471 12.6797 7.59637C13.4199 8.34804 13.7901 9.25554 13.7901 10.3189C13.7901 11.3822 13.4199 12.2897 12.6797 13.0414C11.9394 13.793 11.0456 14.1689 9.99841 14.1689ZM9.99841 11.9689C10.4498 11.9689 10.8333 11.8083 11.1489 11.4871C11.4652 11.1666 11.6234 10.7772 11.6234 10.3189C11.6234 9.86054 11.4652 9.47114 11.1489 9.15067C10.8333 8.82947 10.4498 8.66887 9.99841 8.66887C9.54702 8.66887 9.16352 8.82947 8.84791 9.15067C8.53158 9.47114 8.37341 9.86054 8.37341 10.3189C8.37341 10.7772 8.53158 11.1666 8.84791 11.4871C9.16352 11.8083 9.54702 11.9689 9.99841 11.9689ZM1.24841 22.9689C0.696128 22.9689 0.248413 22.5212 0.248413 21.9689V4.16887C0.248413 3.61659 0.696128 3.16887 1.24841 3.16887H3.49841V1.96887C3.49841 1.41659 3.94613 0.968872 4.49841 0.968872H4.66508C5.21736 0.968872 5.66508 1.41659 5.66508 1.96887V3.16887H14.3317V1.96887C14.3317 1.41659 14.7795 0.968872 15.3317 0.968872H15.4984C16.0507 0.968872 16.4984 1.41659 16.4984 1.96887V3.16887H18.7484C19.3007 3.16887 19.7484 3.61659 19.7484 4.16887V21.9689C19.7484 22.5212 19.3007 22.9689 18.7484 22.9689H1.24841Z" fill="#CDCDCD"/>
</svg>
