<svg width="20" height="9" xmlns="http://www.w3.org/2000/svg" xmlns:xlink="http://www.w3.org/1999/xlink" xml:space="preserve" overflow="hidden"><defs><clipPath id="clip0"><rect x="630" y="355" width="20" height="9"/></clipPath></defs><g clip-path="url(#clip0)" transform="translate(-630 -355)"><path d="M648.904 363.225 631.096 363.225C630.805 363.225 630.526 363.109 630.321 362.902 630.115 362.695 630 362.414 630 362.121 630 361.829 630.115 361.548 630.321 361.341 630.526 361.134 630.805 361.018 631.096 361.018L648.904 361.018C649.195 361.018 649.474 361.134 649.679 361.341 649.885 361.548 650 361.829 650 362.121 650 362.414 649.885 362.695 649.679 362.902 649.474 363.109 649.195 363.225 648.904 363.225Z" fill="#FFFFFF"/><path d="M648.904 357.982 631.096 357.982C630.805 357.982 630.526 357.866 630.321 357.659 630.115 357.452 630 357.171 630 356.878 630 356.586 630.115 356.305 630.321 356.098 630.526 355.891 630.805 355.774 631.096 355.774L648.904 355.774C649.195 355.774 649.474 355.891 649.679 356.098 649.885 356.305 650 356.586 650 356.878 650 357.171 649.885 357.452 649.679 357.659 649.474 357.866 649.195 357.982 648.904 357.982Z" fill="#FFFFFF"/></g></svg>